<svg width="262" height="30" viewBox="0 0 262 30" fill="none" xmlns="http://www.w3.org/2000/svg">
<path d="M13.28 29.4001C10.7467 29.4001 8.57334 28.9868 6.76 28.1601C4.97334 27.3334 3.57334 26.1201 2.56 24.5201C1.57334 22.9201 1.02667 20.9334 0.920005 18.5601C0.893338 17.4668 0.880005 16.2934 0.880005 15.0401C0.880005 13.7868 0.893338 12.5868 0.920005 11.4401C1.02667 9.1201 1.58667 7.1601 2.6 5.5601C3.61334 3.93343 5.02667 2.70676 6.84001 1.8801C8.65334 1.02676 10.8 0.600098 13.28 0.600098C15.04 0.600098 16.6667 0.826765 18.16 1.2801C19.6533 1.70676 20.96 2.34676 22.08 3.2001C23.2 4.02676 24.0667 5.0401 24.68 6.2401C25.32 7.41343 25.6533 8.74677 25.68 10.2401C25.7067 10.4801 25.6267 10.6801 25.44 10.8401C25.28 11.0001 25.08 11.0801 24.84 11.0801H19.44C19.0933 11.0801 18.8267 11.0134 18.64 10.8801C18.4533 10.7201 18.2933 10.4401 18.16 10.0401C17.7867 8.62677 17.1733 7.66677 16.32 7.1601C15.4933 6.62676 14.4667 6.3601 13.24 6.3601C11.7733 6.3601 10.6133 6.77343 9.76001 7.6001C8.90667 8.4001 8.44001 9.74677 8.36001 11.6401C8.28001 13.8268 8.28001 16.0668 8.36001 18.3601C8.44001 20.2534 8.90667 21.6134 9.76001 22.4401C10.6133 23.2401 11.7733 23.6401 13.24 23.6401C14.4667 23.6401 15.5067 23.3734 16.36 22.8401C17.2133 22.3068 17.8133 21.3468 18.16 19.9601C18.2667 19.5601 18.4133 19.2934 18.6 19.1601C18.8133 19.0001 19.0933 18.9201 19.44 18.9201H24.84C25.08 18.9201 25.28 19.0001 25.44 19.1601C25.6267 19.3201 25.7067 19.5201 25.68 19.7601C25.6533 21.2534 25.32 22.6001 24.68 23.8001C24.0667 24.9734 23.2 25.9868 22.08 26.8401C20.96 27.6668 19.6533 28.3068 18.16 28.7601C16.6667 29.1868 15.04 29.4001 13.28 29.4001Z" fill="white"/>
<path d="M30.8859 29.0001C30.5926 29.0001 30.3526 28.9068 30.1659 28.7201C29.9793 28.5334 29.8859 28.2934 29.8859 28.0001V2.0001C29.8859 1.70676 29.9793 1.46676 30.1659 1.2801C30.3526 1.09343 30.5926 1.0001 30.8859 1.0001H41.7659C45.2059 1.0001 47.9126 1.8001 49.8859 3.4001C51.8859 4.97343 52.8859 7.21343 52.8859 10.1201C52.8859 12.0134 52.4193 13.6134 51.4859 14.9201C50.5793 16.2268 49.3793 17.2134 47.8859 17.8801L53.4059 27.7201C53.4859 27.8801 53.5259 28.0268 53.5259 28.1601C53.5259 28.3734 53.4326 28.5734 53.2459 28.7601C53.0859 28.9201 52.8859 29.0001 52.6459 29.0001H47.3659C46.8593 29.0001 46.4859 28.8801 46.2459 28.6401C46.0059 28.3734 45.8326 28.1334 45.7259 27.9201L41.1659 19.1201H37.0459V28.0001C37.0459 28.2934 36.9526 28.5334 36.7659 28.7201C36.5793 28.9068 36.3393 29.0001 36.0459 29.0001H30.8859ZM37.0459 13.4801H41.6859C42.9393 13.4801 43.8726 13.1734 44.4859 12.5601C45.1259 11.9468 45.4459 11.1068 45.4459 10.0401C45.4459 9.0001 45.1393 8.1601 44.5259 7.5201C43.9393 6.8801 42.9926 6.5601 41.6859 6.5601H37.0459V13.4801Z" fill="white"/>
<path d="M58.5422 29.0001C58.2489 29.0001 58.0089 28.9068 57.8222 28.7201C57.6355 28.5334 57.5422 28.2934 57.5422 28.0001V2.0001C57.5422 1.70676 57.6355 1.46676 57.8222 1.2801C58.0089 1.09343 58.2489 1.0001 58.5422 1.0001H77.2222C77.5155 1.0001 77.7555 1.09343 77.9422 1.2801C78.1289 1.46676 78.2222 1.70676 78.2222 2.0001V5.7601C78.2222 6.05343 78.1289 6.29343 77.9422 6.4801C77.7555 6.66676 77.5155 6.7601 77.2222 6.7601H64.4622V12.1601H76.3422C76.6355 12.1601 76.8755 12.2668 77.0622 12.4801C77.2489 12.6668 77.3422 12.9068 77.3422 13.2001V16.6801C77.3422 16.9468 77.2489 17.1868 77.0622 17.4001C76.8755 17.5868 76.6355 17.6801 76.3422 17.6801H64.4622V23.2401H77.5422C77.8355 23.2401 78.0755 23.3334 78.2622 23.5201C78.4489 23.7068 78.5422 23.9468 78.5422 24.2401V28.0001C78.5422 28.2934 78.4489 28.5334 78.2622 28.7201C78.0755 28.9068 77.8355 29.0001 77.5422 29.0001H58.5422Z" fill="white"/>
<path d="M81.4891 29.0001C81.2757 29.0001 81.0757 28.9201 80.8891 28.7601C80.7291 28.5734 80.6491 28.3734 80.6491 28.1601C80.6491 28.0268 80.6624 27.9068 80.6891 27.8001L90.0891 2.1201C90.1691 1.82676 90.3291 1.57343 90.5691 1.3601C90.8357 1.1201 91.1957 1.0001 91.6491 1.0001H97.5691C98.0224 1.0001 98.3691 1.1201 98.6091 1.3601C98.8757 1.57343 99.0491 1.82676 99.1291 2.1201L108.489 27.8001C108.542 27.9068 108.569 28.0268 108.569 28.1601C108.569 28.3734 108.476 28.5734 108.289 28.7601C108.129 28.9201 107.929 29.0001 107.689 29.0001H102.769C102.369 29.0001 102.062 28.9068 101.849 28.7201C101.662 28.5068 101.542 28.3201 101.489 28.1601L99.9291 24.0801H89.2491L87.7291 28.1601C87.6757 28.3201 87.5557 28.5068 87.3691 28.7201C87.1824 28.9068 86.8624 29.0001 86.4091 29.0001H81.4891ZM90.8891 18.3201H98.3291L94.5691 7.7601L90.8891 18.3201Z" fill="white"/>
<path d="M112.722 29.0001C112.455 29.0001 112.215 28.9068 112.002 28.7201C111.815 28.5334 111.722 28.2934 111.722 28.0001V2.0001C111.722 1.70676 111.815 1.46676 112.002 1.2801C112.215 1.09343 112.455 1.0001 112.722 1.0001H117.042C117.469 1.0001 117.789 1.1201 118.002 1.3601C118.242 1.57343 118.389 1.74676 118.442 1.8801L125.482 14.5201L132.522 1.8801C132.602 1.74676 132.735 1.57343 132.922 1.3601C133.135 1.1201 133.469 1.0001 133.922 1.0001H138.202C138.495 1.0001 138.735 1.09343 138.922 1.2801C139.135 1.46676 139.242 1.70676 139.242 2.0001V28.0001C139.242 28.2934 139.135 28.5334 138.922 28.7201C138.735 28.9068 138.495 29.0001 138.202 29.0001H133.442C133.149 29.0001 132.895 28.9068 132.682 28.7201C132.495 28.5334 132.402 28.2934 132.402 28.0001V13.0001L127.882 21.3601C127.775 21.6001 127.615 21.8134 127.402 22.0001C127.189 22.1868 126.895 22.2801 126.522 22.2801H124.442C124.069 22.2801 123.775 22.1868 123.562 22.0001C123.349 21.8134 123.175 21.6001 123.042 21.3601L118.522 13.0001V28.0001C118.522 28.2934 118.429 28.5334 118.242 28.7201C118.055 28.9068 117.815 29.0001 117.522 29.0001H112.722Z" fill="white"/>
<path d="M163.763 29.4001C161.097 29.4001 158.883 29.0268 157.123 28.2801C155.363 27.5068 154.03 26.5068 153.123 25.2801C152.217 24.0534 151.737 22.7468 151.683 21.3601C151.683 21.1468 151.763 20.9601 151.923 20.8001C152.11 20.6134 152.323 20.5201 152.563 20.5201H157.603C157.977 20.5201 158.257 20.5868 158.443 20.7201C158.657 20.8534 158.843 21.0268 159.003 21.2401C159.217 21.6401 159.51 22.0268 159.883 22.4001C160.283 22.7734 160.79 23.0801 161.403 23.3201C162.043 23.5334 162.83 23.6401 163.763 23.6401C165.31 23.6401 166.47 23.4001 167.243 22.9201C168.043 22.4401 168.443 21.7868 168.443 20.9601C168.443 20.3734 168.23 19.8934 167.803 19.5201C167.377 19.1201 166.683 18.7734 165.723 18.4801C164.79 18.1601 163.537 17.8401 161.963 17.5201C159.937 17.0934 158.203 16.5468 156.763 15.8801C155.35 15.1868 154.27 14.2934 153.523 13.2001C152.777 12.0801 152.403 10.6934 152.403 9.0401C152.403 7.41343 152.857 5.9601 153.763 4.6801C154.697 3.4001 155.99 2.4001 157.643 1.6801C159.297 0.960098 161.257 0.600098 163.523 0.600098C165.363 0.600098 166.977 0.840098 168.363 1.3201C169.777 1.8001 170.963 2.4401 171.923 3.2401C172.883 4.0401 173.603 4.89343 174.083 5.8001C174.59 6.6801 174.857 7.54676 174.883 8.4001C174.883 8.61343 174.803 8.81343 174.643 9.0001C174.483 9.1601 174.283 9.2401 174.043 9.2401H168.763C168.47 9.2401 168.217 9.18676 168.003 9.0801C167.79 8.97343 167.603 8.8001 167.443 8.5601C167.283 7.97343 166.857 7.46676 166.163 7.0401C165.497 6.58676 164.617 6.3601 163.523 6.3601C162.35 6.3601 161.43 6.57343 160.763 7.0001C160.123 7.4001 159.803 8.02676 159.803 8.8801C159.803 9.41343 159.977 9.8801 160.323 10.2801C160.697 10.6801 161.297 11.0268 162.123 11.3201C162.977 11.6134 164.137 11.9201 165.603 12.2401C168.03 12.6934 169.99 13.2668 171.483 13.9601C172.977 14.6268 174.07 15.5068 174.763 16.6001C175.457 17.6668 175.803 19.0134 175.803 20.6401C175.803 22.4534 175.283 24.0268 174.243 25.3601C173.23 26.6668 171.817 27.6668 170.003 28.3601C168.19 29.0534 166.11 29.4001 163.763 29.4001Z" fill="white"/>
<path d="M180.808 29.0001C180.514 29.0001 180.274 28.9068 180.088 28.7201C179.901 28.5334 179.808 28.2934 179.808 28.0001V2.0001C179.808 1.70676 179.901 1.46676 180.088 1.2801C180.274 1.09343 180.514 1.0001 180.808 1.0001H185.968C186.261 1.0001 186.501 1.09343 186.688 1.2801C186.874 1.46676 186.968 1.70676 186.968 2.0001V11.6401H196.848V2.0001C196.848 1.70676 196.941 1.46676 197.128 1.2801C197.314 1.09343 197.554 1.0001 197.848 1.0001H203.008C203.301 1.0001 203.541 1.09343 203.728 1.2801C203.914 1.46676 204.008 1.70676 204.008 2.0001V28.0001C204.008 28.2934 203.914 28.5334 203.728 28.7201C203.541 28.9068 203.301 29.0001 203.008 29.0001H197.848C197.554 29.0001 197.314 28.9068 197.128 28.7201C196.941 28.5334 196.848 28.2934 196.848 28.0001V18.0401H186.968V28.0001C186.968 28.2934 186.874 28.5334 186.688 28.7201C186.501 28.9068 186.261 29.0001 185.968 29.0001H180.808Z" fill="white"/>
<path d="M221.053 29.4001C218.599 29.4001 216.466 29.0001 214.653 28.2001C212.839 27.4001 211.426 26.2001 210.413 24.6001C209.399 22.9734 208.839 20.9468 208.732 18.5201C208.706 17.3734 208.693 16.2268 208.693 15.0801C208.693 13.9334 208.706 12.7734 208.732 11.6001C208.839 9.2001 209.399 7.18676 210.413 5.5601C211.452 3.90677 212.879 2.66677 214.693 1.8401C216.506 1.01343 218.626 0.600098 221.053 0.600098C223.452 0.600098 225.559 1.01343 227.372 1.8401C229.212 2.66677 230.652 3.90677 231.693 5.5601C232.732 7.18676 233.293 9.2001 233.373 11.6001C233.426 12.7734 233.452 13.9334 233.452 15.0801C233.452 16.2268 233.426 17.3734 233.373 18.5201C233.266 20.9468 232.706 22.9734 231.693 24.6001C230.679 26.2001 229.266 27.4001 227.452 28.2001C225.639 29.0001 223.506 29.4001 221.053 29.4001ZM221.053 23.6401C222.466 23.6401 223.613 23.2134 224.493 22.3601C225.399 21.5068 225.879 20.1468 225.933 18.2801C225.986 17.1068 226.013 16.0001 226.013 14.9601C226.013 13.9201 225.986 12.8401 225.933 11.7201C225.879 10.4668 225.639 9.45343 225.213 8.6801C224.813 7.8801 224.253 7.29343 223.533 6.9201C222.812 6.54676 221.986 6.3601 221.053 6.3601C220.146 6.3601 219.333 6.54676 218.613 6.9201C217.893 7.29343 217.319 7.8801 216.893 8.6801C216.466 9.45343 216.226 10.4668 216.173 11.7201C216.146 12.8401 216.133 13.9201 216.133 14.9601C216.133 16.0001 216.146 17.1068 216.173 18.2801C216.253 20.1468 216.732 21.5068 217.613 22.3601C218.493 23.2134 219.639 23.6401 221.053 23.6401Z" fill="white"/>
<path d="M239.089 29.0001C238.796 29.0001 238.556 28.9068 238.369 28.7201C238.182 28.5334 238.089 28.2934 238.089 28.0001V2.0001C238.089 1.70676 238.182 1.46676 238.369 1.2801C238.556 1.09343 238.796 1.0001 239.089 1.0001H250.289C252.502 1.0001 254.422 1.34676 256.049 2.0401C257.702 2.70676 258.982 3.7201 259.889 5.0801C260.822 6.4401 261.289 8.1601 261.289 10.2401C261.289 12.2934 260.822 13.9868 259.889 15.3201C258.982 16.6534 257.702 17.6401 256.049 18.2801C254.422 18.9201 252.502 19.2401 250.289 19.2401H245.529V28.0001C245.529 28.2934 245.422 28.5334 245.209 28.7201C245.022 28.9068 244.782 29.0001 244.489 29.0001H239.089ZM245.409 13.7201H250.089C251.236 13.7201 252.142 13.4268 252.809 12.8401C253.502 12.2534 253.849 11.3601 253.849 10.1601C253.849 9.14677 253.556 8.29343 252.969 7.6001C252.382 6.90676 251.422 6.5601 250.089 6.5601H245.409V13.7201Z" fill="white"/>
</svg>
